<svg width="512" height="512" viewBox="0 0 512 512" fill="none" xmlns="http://www.w3.org/2000/svg">
<g clip-path="url(#clip0)">
<path d="M76.373 452.181H380.565L366.037 405.141L400.789 434.965L432.64 463.509L490.666 512V52.8C489.216 24.256 464.64 0 434.176 0L76.4797 0.064C46.037 0.064 21.333 24.3627 21.333 52.9067V399.36C21.333 429.461 45.9943 452.181 76.373 452.181V452.181ZM301.397 121.237L300.693 121.493L300.949 121.237H301.397ZM138.602 148.309C177.706 119.851 213.952 121.216 213.952 121.216L216.874 124.096C169.024 135.509 147.328 156.885 147.328 156.885C147.328 156.885 153.13 154.048 163.264 149.717C227.712 124.373 298.09 126.208 363.242 158.293C363.242 158.293 341.504 138.304 296.597 125.504L300.565 121.6C306.773 121.621 339.626 122.773 374.784 148.48C374.784 148.48 414.122 215.68 414.122 298.24C412.821 296.661 389.717 333.781 330.261 335.061C330.261 335.061 320.192 323.669 313.024 313.728C347.797 303.744 360.81 283.776 360.81 283.776C349.397 290.965 338.986 295.232 330.538 299.499C317.546 305.216 304.533 308.032 291.541 310.912C230.016 320.896 195.477 304.192 162.837 290.944L151.68 285.269C151.68 285.269 164.672 305.237 198.058 315.221C189.29 325.227 180.608 336.597 180.608 336.597C121.173 335.189 99.4983 298.069 99.4983 298.069C99.4983 215.381 138.602 148.309 138.602 148.309V148.309Z" fill="#838383"/>
<path d="M305.238 272.448C320.406 272.448 332.758 259.648 332.758 243.861C332.758 228.181 320.47 215.381 305.238 215.381V215.445C290.134 215.445 277.76 228.202 277.718 243.989C277.718 259.648 290.07 272.448 305.238 272.448Z" fill="#838383"/>
<path d="M206.72 272.448C221.888 272.448 234.24 259.648 234.24 243.861C234.24 228.181 221.974 215.381 206.806 215.381L206.72 215.445C191.552 215.445 179.2 228.202 179.2 243.989C179.2 259.648 191.552 272.448 206.72 272.448V272.448Z" fill="#838383"/>
</g>
<defs>
<clipPath id="clip0">
<rect width="512" height="512" fill="white"/>
</clipPath>
</defs>
</svg>
