<svg width="32" height="32" viewBox="0 0 32 32" fill="none" xmlns="http://www.w3.org/2000/svg">
<circle cx="16" cy="16" r="15.5" stroke="#F3F3F3"/>
<path d="M9.58816 22.242H11.371C11.617 22.242 11.8164 22.0426 11.8164 21.7966V14.0037C11.8164 13.7577 11.617 13.5583 11.371 13.5583H9.58816C9.34217 13.5583 9.14282 13.7577 9.14282 14.0037V21.7966C9.14282 22.0425 9.34217 22.242 9.58816 22.242Z" fill="#F3F3F3"/>
<path d="M9.58816 12.1881H11.371C11.617 12.1881 11.8164 11.9887 11.8164 11.7428V10.1596C11.8164 9.91361 11.617 9.71423 11.371 9.71423H9.58816C9.34217 9.71423 9.14282 9.91361 9.14282 10.1596V11.7428C9.14282 11.9887 9.34217 12.1881 9.58816 12.1881Z" fill="#F3F3F3"/>
<path d="M22.1863 14.4622C21.9358 14.1324 21.5664 13.8612 21.0779 13.6487C20.5894 13.4362 20.0503 13.33 19.4604 13.33C18.2628 13.33 17.2481 13.787 16.4162 14.7012C16.2506 14.8831 16.1303 14.8433 16.1303 14.5974V14.0037C16.1303 13.7577 15.9309 13.5583 15.6849 13.5583H14.0923C13.8463 13.5583 13.647 13.7577 13.647 14.0037V21.7966C13.647 22.0426 13.8463 22.242 14.0923 22.242H15.8752C16.1212 22.242 16.3205 22.0426 16.3205 21.7966V19.0864C16.3205 17.9574 16.3887 17.1835 16.5251 16.7648C16.6614 16.3462 16.9136 16.0101 17.2815 15.7563C17.6494 15.5026 18.0648 15.3757 18.5279 15.3757C18.8895 15.3757 19.1987 15.4645 19.4557 15.6422C19.7126 15.8198 19.8981 16.0686 20.0123 16.389C20.1265 16.7094 20.1836 17.415 20.1836 18.5061V21.7966C20.1836 22.0426 20.3829 22.242 20.6289 22.242H22.4118C22.6578 22.242 22.8571 22.0426 22.8571 21.7966V17.3833C22.8571 16.6032 22.8079 16.0037 22.7097 15.5851C22.6115 15.1665 22.437 14.7922 22.1863 14.4622Z" fill="#F3F3F3"/>
</svg>
