<svg width="28" height="16" viewBox="0 0 28 16" fill="none" xmlns="http://www.w3.org/2000/svg">
<g clip-path="url(#clip0)">
<path d="M15.7937 7.87513C15.7937 12.2243 12.2581 15.75 7.89697 15.75C3.53585 15.75 0 12.2235 0 7.87513C0 3.52675 3.53558 0 7.89697 0C12.2584 0 15.7937 3.52595 15.7937 7.87513ZM24.4566 7.87513C24.4566 11.9689 22.6888 15.289 20.5081 15.289C18.3275 15.289 16.5597 11.9689 16.5597 7.87513C16.5597 3.78132 18.3272 0.461305 20.5079 0.461305C22.6886 0.461305 24.4564 3.78025 24.4564 7.87513H24.4566ZM28 7.87513C28 11.5422 27.3784 14.5168 26.6113 14.5168C25.8443 14.5168 25.2229 11.543 25.2229 7.87513C25.2229 4.20728 25.8445 1.23351 26.6113 1.23351C27.3781 1.23351 28 4.20701 28 7.87513" fill="#7F8991"/>
</g>
<defs>
<clipPath id="clip0">
<rect width="28" height="15.75" fill="white"/>
</clipPath>
</defs>
</svg>
