<svg width="32" height="32" viewBox="0 0 32 32" fill="none" xmlns="http://www.w3.org/2000/svg">
<circle cx="16" cy="16" r="15.5" stroke="#F3F3F3"/>
<g clip-path="url(#clip0)">
<path d="M24 11.039C23.405 11.3 22.771 11.473 22.11 11.557C22.79 11.151 23.309 10.513 23.553 9.744C22.919 10.122 22.219 10.389 21.473 10.538C20.871 9.897 20.013 9.5 19.077 9.5C17.261 9.5 15.799 10.974 15.799 12.781C15.799 13.041 15.821 13.291 15.875 13.529C13.148 13.396 10.735 12.089 9.114 10.098C8.831 10.589 8.665 11.151 8.665 11.756C8.665 12.892 9.25 13.899 10.122 14.482C9.595 14.472 9.078 14.319 8.64 14.078C8.64 14.088 8.64 14.101 8.64 14.114C8.64 15.708 9.777 17.032 11.268 17.337C11.001 17.41 10.71 17.445 10.408 17.445C10.198 17.445 9.986 17.433 9.787 17.389C10.212 18.688 11.418 19.643 12.852 19.674C11.736 20.547 10.319 21.073 8.785 21.073C8.516 21.073 8.258 21.061 8 21.028C9.453 21.965 11.175 22.5 13.032 22.5C19.068 22.5 22.368 17.5 22.368 13.166C22.368 13.021 22.363 12.881 22.356 12.742C23.007 12.28 23.554 11.703 24 11.039Z" fill="#F3F3F3"/>
</g>
<defs>
<clipPath id="clip0">
<rect width="16" height="16" fill="white" transform="translate(8 8)"/>
</clipPath>
</defs>
</svg>
