<svg width="32" height="32" viewBox="0 0 32 32" fill="none" xmlns="http://www.w3.org/2000/svg">
<circle cx="16" cy="16" r="15.5" stroke="#F3F3F3"/>
<path d="M12.2168 16.5216H13.9707V23.7419C13.9707 23.8845 14.0862 24 14.2287 24H17.2025C17.345 24 17.4605 23.8845 17.4605 23.7419V16.5556H19.4767C19.6078 16.5556 19.7181 16.4572 19.7331 16.327L20.0393 13.6689C20.0477 13.5957 20.0245 13.5225 19.9756 13.4676C19.9266 13.4127 19.8565 13.3813 19.783 13.3813H17.4606V11.715C17.4606 11.2127 17.7311 10.958 18.2645 10.958C18.3406 10.958 19.783 10.958 19.783 10.958C19.9256 10.958 20.0411 10.8424 20.0411 10.6999V8.25997C20.0411 8.11742 19.9256 8.00191 19.783 8.00191H17.6904C17.6756 8.00119 17.6428 8 17.5945 8C17.2314 8 15.9693 8.07128 14.9724 8.98844C13.8677 10.0048 14.0213 11.2217 14.058 11.4327V13.3812H12.2168C12.0742 13.3812 11.9587 13.4967 11.9587 13.6393V16.2635C11.9587 16.406 12.0742 16.5216 12.2168 16.5216Z" fill="#F3F3F3"/>
</svg>
