<svg width="59" height="29" viewBox="0 0 59 29" fill="none" xmlns="http://www.w3.org/2000/svg">
<path d="M5.502 5.624H9.114V10.608C8.582 10.7853 8.036 10.916 7.476 11C6.92533 11.0933 6.29533 11.14 5.586 11.14C4.05533 11.14 2.87933 10.6873 2.058 9.782C1.246 8.86733 0.84 7.60733 0.84 6.002C0.84 4.95667 1.04067 4.05133 1.442 3.286C1.85267 2.51133 2.44533 1.914 3.22 1.494C3.99467 1.074 4.93267 0.863999 6.034 0.863999C6.58467 0.863999 7.112 0.92 7.616 1.032C8.12 1.13467 8.58667 1.27933 9.016 1.466L8.47 2.726C8.12467 2.57667 7.73733 2.446 7.308 2.334C6.888 2.222 6.44467 2.166 5.978 2.166C4.86733 2.166 3.99467 2.51133 3.36 3.202C2.72533 3.89267 2.408 4.83067 2.408 6.016C2.408 6.772 2.52467 7.43933 2.758 8.018C2.99133 8.58733 3.36 9.03533 3.864 9.362C4.368 9.68867 5.026 9.852 5.838 9.852C6.23933 9.852 6.57533 9.83333 6.846 9.796C7.126 9.74933 7.38267 9.698 7.616 9.642V6.926H5.502V5.624ZM17.4099 3.454V11H16.2199L16.0099 10.006H15.9399C15.6972 10.398 15.3612 10.6873 14.9319 10.874C14.5025 11.0513 14.0499 11.14 13.5739 11.14C12.6872 11.14 12.0105 10.9207 11.5439 10.482C11.0772 10.0433 10.8439 9.348 10.8439 8.396V3.454H12.3419V8.172C12.3419 9.33867 12.8505 9.922 13.8679 9.922C14.6425 9.922 15.1792 9.69333 15.4779 9.236C15.7765 8.77867 15.9259 8.12533 15.9259 7.276V3.454H17.4099ZM22.0282 9.936C22.2242 9.936 22.4249 9.922 22.6302 9.894C22.8356 9.85667 23.0129 9.81 23.1622 9.754V10.874C22.9942 10.9487 22.7749 11.0093 22.5042 11.056C22.2429 11.112 21.9769 11.14 21.7062 11.14C21.2956 11.14 20.9176 11.07 20.5722 10.93C20.2269 10.79 19.9516 10.5473 19.7462 10.202C19.5502 9.85667 19.4522 9.376 19.4522 8.76V4.588H18.4022V3.916L19.5082 3.356L20.0262 1.76H20.9362V3.454H23.0922V4.588H20.9362V8.732C20.9362 9.14267 21.0342 9.446 21.2302 9.642C21.4356 9.838 21.7016 9.936 22.0282 9.936ZM26.9676 9.936C27.1636 9.936 27.3643 9.922 27.5696 9.894C27.7749 9.85667 27.9523 9.81 28.1016 9.754V10.874C27.9336 10.9487 27.7143 11.0093 27.4436 11.056C27.1823 11.112 26.9163 11.14 26.6456 11.14C26.2349 11.14 25.8569 11.07 25.5116 10.93C25.1663 10.79 24.8909 10.5473 24.6856 10.202C24.4896 9.85667 24.3916 9.376 24.3916 8.76V4.588H23.3416V3.916L24.4476 3.356L24.9656 1.76H25.8756V3.454H28.0316V4.588H25.8756V8.732C25.8756 9.14267 25.9736 9.446 26.1696 9.642C26.3749 9.838 26.6409 9.936 26.9676 9.936ZM32.159 3.314C33.1483 3.314 33.9277 3.622 34.497 4.238C35.0663 4.84467 35.351 5.67533 35.351 6.73V7.542H30.283C30.3017 8.31667 30.5023 8.90933 30.885 9.32C31.277 9.73067 31.823 9.936 32.523 9.936C33.0083 9.936 33.4377 9.894 33.811 9.81C34.1937 9.71667 34.5857 9.58133 34.987 9.404V10.636C34.6043 10.804 34.2217 10.93 33.839 11.014C33.4563 11.098 32.999 11.14 32.467 11.14C31.7297 11.14 31.081 10.9953 30.521 10.706C29.9703 10.4167 29.5363 9.98733 29.219 9.418C28.911 8.83933 28.757 8.13 28.757 7.29C28.757 6.44067 28.897 5.722 29.177 5.134C29.4663 4.546 29.863 4.098 30.367 3.79C30.8803 3.47267 31.4777 3.314 32.159 3.314ZM32.159 4.462C31.627 4.462 31.1977 4.63467 30.871 4.98C30.5537 5.32533 30.367 5.81533 30.311 6.45H33.867C33.8577 5.862 33.713 5.386 33.433 5.022C33.1623 4.64867 32.7377 4.462 32.159 4.462ZM40.5067 3.314C40.6374 3.314 40.7774 3.32333 40.9267 3.342C41.0854 3.35133 41.2207 3.36533 41.3327 3.384L41.1787 4.77C40.936 4.70467 40.684 4.672 40.4227 4.672C40.0494 4.672 39.6947 4.76533 39.3587 4.952C39.032 5.13867 38.766 5.40933 38.5607 5.764C38.3647 6.10933 38.2667 6.52933 38.2667 7.024V11H36.7827V3.454H37.9587L38.1547 4.798H38.2107C38.4534 4.39667 38.766 4.05133 39.1487 3.762C39.5314 3.46333 39.984 3.314 40.5067 3.314ZM5.6 16.166C4.60133 16.166 3.822 16.5113 3.262 17.202C2.702 17.8833 2.422 18.8213 2.422 20.016C2.422 21.2013 2.68333 22.1347 3.206 22.816C3.72867 23.4973 4.522 23.838 5.586 23.838C6.01533 23.838 6.426 23.8007 6.818 23.726C7.21933 23.642 7.62533 23.5347 8.036 23.404V24.706C7.644 24.8553 7.24267 24.9627 6.832 25.028C6.43067 25.1027 5.95467 25.14 5.404 25.14C4.37733 25.14 3.528 24.93 2.856 24.51C2.184 24.0807 1.68 23.4833 1.344 22.718C1.008 21.9433 0.84 21.038 0.84 20.002C0.84 18.994 1.022 18.1027 1.386 17.328C1.75933 16.5533 2.30067 15.9513 3.01 15.522C3.71933 15.0833 4.58733 14.864 5.614 14.864C6.118 14.864 6.608 14.92 7.084 15.032C7.56933 15.1347 8.01267 15.284 8.414 15.48L7.854 16.74C7.52733 16.5907 7.17267 16.46 6.79 16.348C6.41667 16.2267 6.02 16.166 5.6 16.166ZM12.5274 17.314C13.47 17.314 14.1747 17.524 14.6414 17.944C15.1174 18.3547 15.3554 19.0033 15.3554 19.89V25H14.3054L14.0114 23.95H13.9554C13.6287 24.3607 13.2834 24.664 12.9194 24.86C12.5647 25.0467 12.07 25.14 11.4354 25.14C10.754 25.14 10.1894 24.958 9.74137 24.594C9.29337 24.2207 9.06937 23.642 9.06937 22.858C9.06937 22.0927 9.35871 21.5093 9.93738 21.108C10.516 20.7067 11.4074 20.4873 12.6114 20.45L13.8994 20.408V19.988C13.8994 19.4373 13.7734 19.05 13.5214 18.826C13.2694 18.5927 12.9147 18.476 12.4574 18.476C12.0747 18.476 11.706 18.532 11.3514 18.644C10.9967 18.756 10.656 18.8913 10.3294 19.05L9.85337 17.972C10.208 17.7853 10.614 17.6313 11.0714 17.51C11.538 17.3793 12.0234 17.314 12.5274 17.314ZM12.8774 21.402C12.0187 21.4393 11.4214 21.584 11.0854 21.836C10.7587 22.0787 10.5954 22.424 10.5954 22.872C10.5954 23.264 10.712 23.5487 10.9454 23.726C11.1787 23.9033 11.482 23.992 11.8554 23.992C12.434 23.992 12.9147 23.8287 13.2974 23.502C13.6894 23.1753 13.8854 22.6853 13.8854 22.032V21.374L12.8774 21.402ZM19.9364 23.936C20.1324 23.936 20.3331 23.922 20.5384 23.894C20.7438 23.8567 20.9211 23.81 21.0704 23.754V24.874C20.9024 24.9487 20.6831 25.0093 20.4124 25.056C20.1511 25.112 19.8851 25.14 19.6144 25.14C19.2038 25.14 18.8258 25.07 18.4804 24.93C18.1351 24.79 17.8598 24.5473 17.6544 24.202C17.4584 23.8567 17.3604 23.376 17.3604 22.76V18.588H16.3104V17.916L17.4164 17.356L17.9344 15.76H18.8444V17.454H21.0004V18.588H18.8444V22.732C18.8444 23.1427 18.9424 23.446 19.1384 23.642C19.3438 23.838 19.6098 23.936 19.9364 23.936ZM29.7165 19.624H33.3285V24.608C32.7965 24.7853 32.2505 24.916 31.6905 25C31.1399 25.0933 30.5099 25.14 29.8005 25.14C28.2699 25.14 27.0939 24.6873 26.2725 23.782C25.4605 22.8673 25.0545 21.6073 25.0545 20.002C25.0545 18.9567 25.2552 18.0513 25.6565 17.286C26.0672 16.5113 26.6599 15.914 27.4345 15.494C28.2092 15.074 29.1472 14.864 30.2485 14.864C30.7992 14.864 31.3265 14.92 31.8305 15.032C32.3345 15.1347 32.8012 15.2793 33.2305 15.466L32.6845 16.726C32.3392 16.5767 31.9519 16.446 31.5225 16.334C31.1025 16.222 30.6592 16.166 30.1925 16.166C29.0819 16.166 28.2092 16.5113 27.5745 17.202C26.9399 17.8927 26.6225 18.8307 26.6225 20.016C26.6225 20.772 26.7392 21.4393 26.9725 22.018C27.2059 22.5873 27.5745 23.0353 28.0785 23.362C28.5825 23.6887 29.2405 23.852 30.0525 23.852C30.4539 23.852 30.7899 23.8333 31.0605 23.796C31.3405 23.7493 31.5972 23.698 31.8305 23.642V20.926H29.7165V19.624ZM38.0544 17.314C38.9971 17.314 39.7017 17.524 40.1684 17.944C40.6444 18.3547 40.8824 19.0033 40.8824 19.89V25H39.8324L39.5384 23.95H39.4824C39.1557 24.3607 38.8104 24.664 38.4464 24.86C38.0917 25.0467 37.5971 25.14 36.9624 25.14C36.2811 25.14 35.7164 24.958 35.2684 24.594C34.8204 24.2207 34.5964 23.642 34.5964 22.858C34.5964 22.0927 34.8857 21.5093 35.4644 21.108C36.0431 20.7067 36.9344 20.4873 38.1384 20.45L39.4264 20.408V19.988C39.4264 19.4373 39.3004 19.05 39.0484 18.826C38.7964 18.5927 38.4417 18.476 37.9844 18.476C37.6017 18.476 37.2331 18.532 36.8784 18.644C36.5237 18.756 36.1831 18.8913 35.8564 19.05L35.3804 17.972C35.7351 17.7853 36.1411 17.6313 36.5984 17.51C37.0651 17.3793 37.5504 17.314 38.0544 17.314ZM38.4044 21.402C37.5457 21.4393 36.9484 21.584 36.6124 21.836C36.2857 22.0787 36.1224 22.424 36.1224 22.872C36.1224 23.264 36.2391 23.5487 36.4724 23.726C36.7057 23.9033 37.0091 23.992 37.3824 23.992C37.9611 23.992 38.4417 23.8287 38.8244 23.502C39.2164 23.1753 39.4124 22.6853 39.4124 22.032V21.374L38.4044 21.402ZM46.5695 17.314C47.4468 17.314 48.1188 17.5333 48.5855 17.972C49.0521 18.4107 49.2855 19.1153 49.2855 20.086V25H47.8155V20.296C47.8155 19.12 47.2975 18.532 46.2615 18.532C45.4868 18.532 44.9548 18.7607 44.6655 19.218C44.3761 19.6753 44.2315 20.3333 44.2315 21.192V25H42.7475V17.454H43.9235L44.1335 18.462H44.2175C44.4601 18.07 44.7915 17.7807 45.2115 17.594C45.6408 17.4073 46.0935 17.314 46.5695 17.314ZM53.7498 17.314C54.7485 17.314 55.5185 17.692 56.0598 18.448H56.1298L56.2978 17.454H57.5018V25.098C57.5018 26.1713 57.2125 26.9833 56.6338 27.534C56.0645 28.0847 55.1918 28.36 54.0158 28.36C53.4652 28.36 52.9612 28.3227 52.5038 28.248C52.0558 28.1733 51.6405 28.0567 51.2578 27.898V26.596C52.0605 26.988 53.0078 27.184 54.0998 27.184C54.7158 27.184 55.1918 27.0067 55.5278 26.652C55.8638 26.3067 56.0318 25.8167 56.0318 25.182V24.93C56.0318 24.8087 56.0365 24.65 56.0458 24.454C56.0552 24.258 56.0645 24.1087 56.0738 24.006H56.0178C55.7658 24.398 55.4485 24.6873 55.0658 24.874C54.6832 25.0513 54.2445 25.14 53.7498 25.14C52.7978 25.14 52.0512 24.7993 51.5098 24.118C50.9778 23.4273 50.7118 22.4707 50.7118 21.248C50.7118 20.0347 50.9778 19.078 51.5098 18.378C52.0512 17.6687 52.7978 17.314 53.7498 17.314ZM54.0578 18.546C53.4698 18.546 53.0172 18.7793 52.6998 19.246C52.3918 19.7127 52.2378 20.3847 52.2378 21.262C52.2378 22.1393 52.3918 22.8067 52.6998 23.264C53.0172 23.7213 53.4792 23.95 54.0858 23.95C54.7765 23.95 55.2805 23.7633 55.5978 23.39C55.9245 23.0073 56.0878 22.3867 56.0878 21.528V21.248C56.0878 20.2867 55.9245 19.596 55.5978 19.176C55.2712 18.756 54.7578 18.546 54.0578 18.546Z" fill="#E8EAED"/>
<path d="M48.5445 4.452C48.5445 5.29667 48.3111 5.93367 47.8445 6.363C47.3825 6.78767 46.7338 7 45.8985 7H44.4985V2.002H46.0455C46.5541 2.002 46.9951 2.09533 47.3685 2.282C47.7418 2.46867 48.0311 2.744 48.2365 3.108C48.4418 3.46733 48.5445 3.91533 48.5445 4.452ZM47.7535 4.473C47.7535 3.843 47.5995 3.381 47.2915 3.087C46.9881 2.78833 46.5565 2.639 45.9965 2.639H45.2545V6.363H45.8635C47.1235 6.363 47.7535 5.733 47.7535 4.473ZM52.2255 7L51.6935 5.558H49.7615L49.2295 7H48.4455L50.3425 1.981H51.1265L53.0165 7H52.2255ZM50.9795 3.493C50.9655 3.44167 50.9399 3.36467 50.9025 3.262C50.8699 3.15933 50.8372 3.052 50.8045 2.94C50.7719 2.828 50.7462 2.737 50.7275 2.667C50.6902 2.81167 50.6482 2.96567 50.6015 3.129C50.5549 3.29233 50.5175 3.41367 50.4895 3.493L49.9855 4.9H51.4835L50.9795 3.493ZM57.5789 4.494C57.5789 5.012 57.4926 5.46467 57.3199 5.852C57.1472 6.23467 56.8882 6.53333 56.5429 6.748C56.1976 6.96267 55.7682 7.07 55.2549 7.07C54.7276 7.07 54.2912 6.96267 53.9459 6.748C53.6006 6.53333 53.3439 6.23233 53.1759 5.845C53.0079 5.45767 52.9239 5.005 52.9239 4.487C52.9239 3.97367 53.0079 3.52567 53.1759 3.143C53.3486 2.76033 53.6076 2.46167 53.9529 2.247C54.2982 2.03233 54.7346 1.925 55.2619 1.925C55.7752 1.925 56.2022 2.03233 56.5429 2.247C56.8882 2.457 57.1472 2.75567 57.3199 3.143C57.4926 3.52567 57.5789 3.976 57.5789 4.494ZM53.7219 4.494C53.7219 5.09133 53.8456 5.56267 54.0929 5.908C54.3402 6.25333 54.7276 6.426 55.2549 6.426C55.7869 6.426 56.1742 6.25333 56.4169 5.908C56.6596 5.56267 56.7809 5.09133 56.7809 4.494C56.7809 3.89667 56.6596 3.42767 56.4169 3.087C56.1789 2.74633 55.7939 2.576 55.2619 2.576C54.7299 2.576 54.3402 2.74633 54.0929 3.087C53.8456 3.42767 53.7219 3.89667 53.7219 4.494Z" fill="#F45C4E"/>
<path d="M48.5445 4.452C48.5445 5.29667 48.3111 5.93367 47.8445 6.363C47.3825 6.78767 46.7338 7 45.8985 7H44.4985V2.002H46.0455C46.5541 2.002 46.9951 2.09533 47.3685 2.282C47.7418 2.46867 48.0311 2.744 48.2365 3.108C48.4418 3.46733 48.5445 3.91533 48.5445 4.452ZM47.7535 4.473C47.7535 3.843 47.5995 3.381 47.2915 3.087C46.9881 2.78833 46.5565 2.639 45.9965 2.639H45.2545V6.363H45.8635C47.1235 6.363 47.7535 5.733 47.7535 4.473ZM52.2255 7L51.6935 5.558H49.7615L49.2295 7H48.4455L50.3425 1.981H51.1265L53.0165 7H52.2255ZM50.9795 3.493C50.9655 3.44167 50.9399 3.36467 50.9025 3.262C50.8699 3.15933 50.8372 3.052 50.8045 2.94C50.7719 2.828 50.7462 2.737 50.7275 2.667C50.6902 2.81167 50.6482 2.96567 50.6015 3.129C50.5549 3.29233 50.5175 3.41367 50.4895 3.493L49.9855 4.9H51.4835L50.9795 3.493ZM57.5789 4.494C57.5789 5.012 57.4926 5.46467 57.3199 5.852C57.1472 6.23467 56.8882 6.53333 56.5429 6.748C56.1976 6.96267 55.7682 7.07 55.2549 7.07C54.7276 7.07 54.2912 6.96267 53.9459 6.748C53.6006 6.53333 53.3439 6.23233 53.1759 5.845C53.0079 5.45767 52.9239 5.005 52.9239 4.487C52.9239 3.97367 53.0079 3.52567 53.1759 3.143C53.3486 2.76033 53.6076 2.46167 53.9529 2.247C54.2982 2.03233 54.7346 1.925 55.2619 1.925C55.7752 1.925 56.2022 2.03233 56.5429 2.247C56.8882 2.457 57.1472 2.75567 57.3199 3.143C57.4926 3.52567 57.5789 3.976 57.5789 4.494ZM53.7219 4.494C53.7219 5.09133 53.8456 5.56267 54.0929 5.908C54.3402 6.25333 54.7276 6.426 55.2549 6.426C55.7869 6.426 56.1742 6.25333 56.4169 5.908C56.6596 5.56267 56.7809 5.09133 56.7809 4.494C56.7809 3.89667 56.6596 3.42767 56.4169 3.087C56.1789 2.74633 55.7939 2.576 55.2619 2.576C54.7299 2.576 54.3402 2.74633 54.0929 3.087C53.8456 3.42767 53.7219 3.89667 53.7219 4.494Z" fill="url(#paint0_linear)"/>
<defs>
<linearGradient id="paint0_linear" x1="48.5" y1="1" x2="48.5" y2="7" gradientUnits="userSpaceOnUse">
<stop stop-color="#EC9228"/>
<stop offset="1" stop-color="#B547F9"/>
</linearGradient>
</defs>
</svg>
