<svg width="203" height="58" viewBox="0 0 203 58" fill="none" xmlns="http://www.w3.org/2000/svg">
<mask id="path-1-inside-1" fill="white">
<path fill-rule="evenodd" clip-rule="evenodd" d="M190.434 1.75711C189.309 0.631895 187.783 -0.000244141 186.191 -0.000244141H5.99999C2.68628 -0.000244141 0 2.68605 0 5.99976V40.6736C0 42.2649 0.632141 43.791 1.75736 44.9162L13.0835 56.2424C14.2088 57.3676 15.7349 57.9998 17.3262 57.9998H197C200.314 57.9998 203 55.3135 203 51.9998V16.8084C203 15.2171 202.368 13.691 201.243 12.5658L190.434 1.75711Z"/>
</mask>
<path fill-rule="evenodd" clip-rule="evenodd" d="M190.434 1.75711C189.309 0.631895 187.783 -0.000244141 186.191 -0.000244141H5.99999C2.68628 -0.000244141 0 2.68605 0 5.99976V40.6736C0 42.2649 0.632141 43.791 1.75736 44.9162L13.0835 56.2424C14.2088 57.3676 15.7349 57.9998 17.3262 57.9998H197C200.314 57.9998 203 55.3135 203 51.9998V16.8084C203 15.2171 202.368 13.691 201.243 12.5658L190.434 1.75711Z" fill="url(#paint0_linear)"/>
<path d="M201.243 12.5658L201.95 11.8587L201.243 12.5658ZM13.0835 56.2424L12.3764 56.9495L13.0835 56.2424ZM1.75736 44.9162L2.46447 44.2091L1.75736 44.9162ZM190.434 1.75711L191.141 1.05L190.434 1.75711ZM186.191 -1.00024H5.99999V0.999756H186.191V-1.00024ZM-1 5.99976V40.6736H1V5.99976H-1ZM1.05025 45.6233L12.3764 56.9495L13.7907 55.5353L2.46447 44.2091L1.05025 45.6233ZM17.3262 58.9998H197V56.9998H17.3262V58.9998ZM204 51.9998V16.8084H202V51.9998H204ZM201.95 11.8587L191.141 1.05L189.727 2.46422L200.536 13.2729L201.95 11.8587ZM204 16.8084C204 14.9519 203.262 13.1714 201.95 11.8587L200.536 13.2729C201.473 14.2106 202 15.4823 202 16.8084H204ZM197 58.9998C200.866 58.9998 204 55.8657 204 51.9998H202C202 54.7612 199.761 56.9998 197 56.9998V58.9998ZM12.3764 56.9495C13.6892 58.2623 15.4697 58.9998 17.3262 58.9998V56.9998C16.0001 56.9998 14.7283 56.473 13.7907 55.5353L12.3764 56.9495ZM-1 40.6736C-1 42.5301 -0.262502 44.3106 1.05025 45.6233L2.46447 44.2091C1.52678 43.2714 1 41.9996 1 40.6736H-1ZM5.99999 -1.00024C2.13399 -1.00024 -1 2.13376 -1 5.99976H1C1 3.23833 3.23857 0.999756 5.99999 0.999756V-1.00024ZM186.191 0.999756C187.517 0.999756 188.789 1.52654 189.727 2.46422L191.141 1.05C189.828 -0.262749 188.048 -1.00024 186.191 -1.00024V0.999756Z" fill="url(#paint1_linear)" mask="url(#path-1-inside-1)"/>
<defs>
<linearGradient id="paint0_linear" x1="-12" y1="17.9997" x2="223.5" y2="68.9998" gradientUnits="userSpaceOnUse">
<stop stop-color="#EC9228"/>
<stop offset="1" stop-color="#B547F9"/>
</linearGradient>
<linearGradient id="paint1_linear" x1="-12" y1="17.9997" x2="223.5" y2="68.9998" gradientUnits="userSpaceOnUse">
<stop stop-color="#EC9228"/>
<stop offset="1" stop-color="#B547F9"/>
</linearGradient>
</defs>
</svg>
