<svg width="32" height="32" viewBox="0 0 32 32" fill="none" xmlns="http://www.w3.org/2000/svg">
<g clip-path="url(#clip0)">
<path d="M23.3333 32H0.666667C0.298667 32 0 31.7014 0 31.3334C0 30.9654 0.298667 30.6667 0.666667 30.6667H23.3333C23.7013 30.6667 24 30.9654 24 31.3334C24 31.7014 23.7013 32 23.3333 32Z" fill="white"/>
<path d="M28.4903 12.9173C28.4876 12.9173 28.4863 12.9173 28.4836 12.9173C27.9476 12.916 27.445 12.704 27.0676 12.324L19.7023 4.87466C18.9316 4.09466 18.9356 2.82932 19.7116 2.05466L21.1783 0.587991C21.957 -0.192009 23.2276 -0.192009 24.0063 0.587991L31.4143 7.99466C32.1943 8.77466 32.1943 10.044 31.4143 10.824L29.905 12.3333C29.5263 12.7093 29.025 12.9173 28.4903 12.9173ZM22.5916 1.33332C22.421 1.33332 22.2503 1.39732 22.1196 1.52799L20.653 2.99466C20.3943 3.25332 20.393 3.67466 20.649 3.93466L28.0143 11.384C28.1396 11.5107 28.3076 11.5813 28.4863 11.5813C28.641 11.5427 28.833 11.5133 28.9596 11.3853L30.469 9.87732C30.729 9.61732 30.729 9.19466 30.469 8.93332L23.061 1.52666C22.933 1.39866 22.7623 1.33332 22.5916 1.33332ZM20.1836 2.52399H20.197H20.1836Z" fill="white"/>
<path d="M7.80503 16.7813C7.51836 16.7813 7.25303 16.5947 7.16636 16.3067C6.93569 15.54 6.81836 14.744 6.81836 13.9413C6.81836 12.6813 7.11969 11.4093 7.68636 10.26C8.75969 8.11466 10.7157 6.544 13.0544 5.948L20.3477 4.09466C20.7077 3.99866 21.0664 4.22 21.157 4.576C21.2477 4.932 21.0317 5.296 20.6757 5.38533L13.3824 7.23866C11.4197 7.74 9.77969 9.05733 8.88103 10.8533C8.40503 11.8173 8.15169 12.8853 8.15169 13.9413C8.15169 14.6133 8.24903 15.28 8.44236 15.924C8.54903 16.276 8.34903 16.648 7.99569 16.7547C7.93169 16.772 7.86769 16.7813 7.80503 16.7813Z" fill="white"/>
<path d="M14.9786 25.9893C13.9066 25.9893 12.9386 25.4373 12.3879 24.5133C11.6852 23.332 11.9119 21.7853 12.9386 20.7533L17.6466 16.0373C17.0866 15.3667 16.2652 15 15.3639 15.0453C14.4132 15.0947 13.5626 15.6187 13.0906 16.4467C12.9052 16.768 12.4959 16.876 12.1799 16.6947C11.8612 16.512 11.7492 16.1053 11.9306 15.7853C12.6292 14.5627 13.8866 13.788 15.2932 13.7133C16.6946 13.6373 18.0319 14.2787 18.8559 15.4227L19.0639 15.712C19.2506 15.972 19.2266 16.3293 19.0052 16.5613L13.8799 21.6947C13.2932 22.2853 13.1452 23.184 13.5306 23.8307C14.0759 24.7493 15.4386 24.9027 16.1852 24.1573L21.9746 18.2773L26.6159 11.1253C26.8172 10.816 27.2306 10.7293 27.5372 10.9293C27.8452 11.1293 27.9332 11.5427 27.7319 11.8507L23.0532 19.06C23.0292 19.0987 23.0012 19.1333 22.9692 19.1667L17.1306 25.0973C16.5572 25.6733 15.7932 25.9893 14.9786 25.9893Z" fill="white"/>
<path d="M20.6887 32H3.33268C2.96468 32 2.66602 31.7013 2.66602 31.3333V16.6667C2.66602 16.2987 2.96468 16 3.33268 16H17.9607C18.3287 16 18.6273 16.2987 18.6273 16.6667C18.6273 17.0347 18.3287 17.3333 17.9607 17.3333H3.99935V30.6667H20.022V20.536C20.022 20.168 20.3207 19.8693 20.6887 19.8693C21.0567 19.8693 21.3554 20.168 21.3554 20.536V31.3333C21.3554 31.7013 21.0567 32 20.6887 32Z" fill="white"/>
</g>
<defs>
<clipPath id="clip0">
<rect width="32" height="32" fill="white"/>
</clipPath>
</defs>
</svg>
