<svg width="32" height="32" viewBox="0 0 32 32" fill="none" xmlns="http://www.w3.org/2000/svg">
<path d="M22.25 8.75C21.7361 8.75 21.2578 8.90601 20.8601 9.1731C20.5225 8.20752 19.5999 7.5 18.5 7.5C17.7542 7.5 17.0842 7.82861 16.6257 8.34839C16.1421 7.80054 15.4675 7.5 14.75 7.5C14.0039 7.5 13.3335 7.8291 12.875 8.34912C12.4165 7.8291 11.7461 7.5 11 7.5C9.62158 7.5 8.5 8.62158 8.5 10V13.5012C7.72144 14.0872 7.25 15.0137 7.25 16C7.25 19.3306 8.8186 22.4883 11.5 24.5C11.9641 24.8481 12.25 25.3994 12.25 26V31.375C12.25 31.7202 12.5298 32 12.875 32H22.875C23.2202 32 23.5 31.7202 23.5 31.375V26.1006C23.9067 24.8633 24.2185 23.5847 24.4275 22.2986C24.6416 20.9785 24.75 19.6321 24.75 18.2969C24.75 17.4885 24.75 12.0627 24.75 11.25C24.75 9.8689 23.6313 8.75 22.25 8.75ZM22.25 10C22.9404 10 23.5 10.5596 23.5 11.25V15.375C23.5 16.0642 22.9392 16.625 22.25 16.625C21.5608 16.625 21 16.0642 21 15.375C21 14.3127 21 12.2231 21 11.25C21 10.5608 21.5608 10 22.25 10ZM18.5 8.75C19.1904 8.75 19.75 9.30957 19.75 10V14.125C19.75 14.8142 19.1892 15.375 18.5 15.375C17.8108 15.375 17.25 14.8142 17.25 14.125V10C17.25 9.31079 17.8108 8.75 18.5 8.75ZM14.75 8.75C15.4404 8.75 16 9.30957 16 10V12.875H13.5V10C13.5 9.31079 14.0608 8.75 14.75 8.75ZM11 8.75C11.6892 8.75 12.25 9.31079 12.25 10V12.875H10.375C10.1643 12.875 9.95508 12.8967 9.75 12.9385V10C9.75 9.31079 10.3108 8.75 11 8.75ZM13.5 30.75V27.875H22.25V30.75H13.5ZM23.1938 22.0984C22.791 24.5762 22.25 25.7002 22.25 26V26.625H13.5V26C13.5 25.0317 13.0488 24.0991 12.25 23.5C9.88037 21.7222 8.5 18.9343 8.5 16C8.5 14.9841 9.32202 14.1243 10.375 14.1243H15.9373C15.647 15.5491 14.384 16.625 12.875 16.625H11.625C11.2798 16.625 11 16.9048 11 17.25C11 17.5952 11.2798 17.875 11.625 17.875H12.25C13.4392 17.875 14.4705 18.72 14.7019 19.8838C14.7688 20.22 15.0959 20.4426 15.437 20.3748C15.7754 20.3076 15.9954 19.9785 15.928 19.6399C15.7563 18.7769 15.2915 18.031 14.6504 17.4971C15.468 17.1323 16.1548 16.5251 16.6162 15.7659C17.075 16.2917 17.749 16.625 18.5 16.625C19.0144 16.625 19.4929 16.4688 19.8909 16.2012C20.2329 17.1748 21.1609 17.875 22.25 17.875C22.7051 17.875 23.1321 17.7522 23.5 17.5386V18.2969C23.5 19.5652 23.397 20.8445 23.1938 22.0984Z" fill="white"/>
<path d="M17.25 4.375V0.625C17.25 0.279785 16.9702 0 16.625 0C16.2798 0 16 0.279785 16 0.625V4.375C16 4.72021 16.2798 5 16.625 5C16.9702 5 17.25 4.72021 17.25 4.375Z" fill="white"/>
<path d="M21.4546 5.17017L24.106 2.51807C24.3499 2.27393 24.3499 1.87842 24.1057 1.63428C23.8616 1.39014 23.4661 1.39014 23.222 1.63428L20.5706 4.28613C20.3267 4.53027 20.3267 4.92603 20.5708 5.17017C20.815 5.41406 21.2105 5.41431 21.4546 5.17017Z" fill="white"/>
<path d="M13.0451 4.80374C13.2892 4.5596 13.289 4.16385 13.0451 3.91995L10.393 1.26859C10.1491 1.02469 9.75333 1.02469 9.50919 1.26883C9.26505 1.51273 9.26529 1.90848 9.50919 2.15262L12.161 4.80399C12.4052 5.04788 12.8009 5.04788 13.0451 4.80374Z" fill="white"/>
</svg>
