<svg width="18" height="18" viewBox="0 0 18 18" fill="none" xmlns="http://www.w3.org/2000/svg">
<path d="M12.7713 0H5.22872C2.34559 0 0 2.34559 0 5.22872V12.7713C0 15.6544 2.34559 18 5.22872 18H12.7713C15.6544 18 18 15.6544 18 12.7713V5.22872C18 2.34559 15.6544 0 12.7713 0ZM16.5938 12.7713C16.5938 14.879 14.879 16.5938 12.7713 16.5938H5.22872C3.121 16.5938 1.40625 14.879 1.40625 12.7713V5.22872C1.40625 3.121 3.121 1.40625 5.22872 1.40625H12.7713C14.879 1.40625 16.5938 3.121 16.5938 5.22872V12.7713Z" fill="#7F8991"/>
<path d="M9 4.14844C6.32482 4.14844 4.14844 6.32482 4.14844 9C4.14844 11.6752 6.32482 13.8516 9 13.8516C11.6752 13.8516 13.8516 11.6752 13.8516 9C13.8516 6.32482 11.6752 4.14844 9 4.14844ZM9 12.4453C7.10026 12.4453 5.55469 10.8997 5.55469 9C5.55469 7.10026 7.10026 5.55469 9 5.55469C10.8997 5.55469 12.4453 7.10026 12.4453 9C12.4453 10.8997 10.8997 12.4453 9 12.4453Z" fill="#7F8991"/>
<path d="M13.9219 4.78125C14.3102 4.78125 14.625 4.46645 14.625 4.07812C14.625 3.6898 14.3102 3.375 13.9219 3.375C13.5335 3.375 13.2188 3.6898 13.2188 4.07812C13.2188 4.46645 13.5335 4.78125 13.9219 4.78125Z" fill="#7F8991"/>
</svg>
