<svg width="18" height="18" viewBox="0 0 18 18" fill="none" xmlns="http://www.w3.org/2000/svg">
<g clip-path="url(#clip0)">
<path d="M18 9C18 13.9703 13.9703 18 9 18C4.02972 18 0 13.9703 0 9C0 4.02972 4.02972 0 9 0C13.9713 0 18 4.02972 18 9Z" fill="#49525B"/>
<path d="M4.44058 9.30239L4.47943 9.24137L6.82069 5.57877C6.85489 5.52513 6.93534 5.53069 6.96122 5.58893C7.35236 6.46553 7.68986 7.55571 7.53174 8.23441C7.46424 8.51365 7.27932 8.89185 7.07126 9.24137C7.04444 9.29223 7.01486 9.34217 6.98342 9.39025C6.96862 9.41243 6.94367 9.42539 6.91685 9.42539H4.50901C4.44429 9.42539 4.40638 9.35511 4.44058 9.30239Z" fill="white"/>
<path d="M14.8753 9.98299V10.5627C14.8753 10.596 14.855 10.6256 14.8254 10.6386C14.6441 10.7162 14.0237 11.001 13.7657 11.3598C13.1073 12.2761 12.6043 13.5864 11.4799 13.5864H6.7891C5.12654 13.5864 3.7793 12.2345 3.7793 10.5664V10.5128C3.7793 10.4684 3.81536 10.4324 3.85976 10.4324H6.4747C6.52648 10.4324 6.5644 10.4804 6.55978 10.5313C6.54128 10.7014 6.57272 10.8753 6.65316 11.0334C6.80852 11.3487 7.1303 11.5457 7.47798 11.5457H8.7725V10.535H7.49276C7.42712 10.535 7.38828 10.4592 7.4262 10.4055C7.44006 10.3843 7.45578 10.3621 7.47242 10.3371C7.59356 10.1651 7.76646 9.8979 7.93846 9.59369C8.05588 9.38843 8.16962 9.16926 8.26116 8.9492C8.27966 8.90945 8.29446 8.86877 8.30924 8.82899C8.33422 8.75873 8.3601 8.69307 8.3786 8.62743C8.39708 8.57195 8.41188 8.51369 8.42668 8.45913C8.47014 8.27235 8.48864 8.07447 8.48864 7.86919C8.48864 7.78875 8.48494 7.70461 8.47754 7.62415C8.47384 7.53631 8.46274 7.44847 8.45164 7.36063C8.44424 7.28295 8.43038 7.20621 8.41558 7.12577C8.39708 7.00833 8.3712 6.89183 8.3416 6.77439L8.33144 6.73001C8.30924 6.64957 8.29076 6.57281 8.26486 6.49237C8.19182 6.23993 8.10766 5.99397 8.0189 5.76373C7.98654 5.67219 7.94954 5.58435 7.91256 5.49651C7.858 5.36427 7.80252 5.24407 7.75168 5.13033C7.72578 5.07855 7.70358 5.03139 7.6814 4.98331C7.65644 4.92875 7.63054 4.87421 7.60466 4.82241C7.58616 4.78265 7.56488 4.74567 7.5501 4.70869L7.39198 4.41649C7.36978 4.37673 7.40678 4.32957 7.45022 4.34159L8.43962 4.60975H8.4424C8.44424 4.60975 8.44518 4.61067 8.4461 4.61067L8.57648 4.64673L8.7198 4.68741L8.7725 4.70221V4.11413C8.7725 3.83025 8.99998 3.60001 9.28108 3.60001C9.42162 3.60001 9.54922 3.65733 9.64076 3.75073C9.7323 3.84413 9.78964 3.97173 9.78964 4.11413V4.98701L9.89504 5.01659C9.90338 5.01937 9.9117 5.02307 9.9191 5.02861C9.94498 5.04803 9.98196 5.07671 10.0291 5.11183C10.0661 5.14143 10.1059 5.17749 10.154 5.21447C10.2492 5.29123 10.3629 5.39017 10.4878 5.50389C10.521 5.53257 10.5534 5.56215 10.583 5.59175C10.7439 5.74153 10.9242 5.91723 11.0962 6.11141C11.1443 6.16595 11.1914 6.22143 11.2395 6.27969C11.2876 6.33887 11.3385 6.39713 11.3828 6.45539C11.4411 6.53305 11.504 6.61349 11.5585 6.69765C11.5844 6.73741 11.614 6.77809 11.639 6.81785C11.7092 6.92419 11.7712 7.03423 11.8304 7.14425C11.8553 7.19511 11.8812 7.25059 11.9034 7.30515C11.9691 7.45217 12.0209 7.60197 12.0541 7.75177C12.0643 7.78413 12.0717 7.81927 12.0754 7.85071V7.85809C12.0865 7.90249 12.0902 7.94965 12.0939 7.99773C12.1087 8.15121 12.1013 8.30471 12.068 8.45913C12.0541 8.52479 12.0357 8.58673 12.0135 8.65239C11.9913 8.71527 11.9691 8.78091 11.9404 8.84286C11.8849 8.97139 11.8193 9.09993 11.7416 9.22013C11.7166 9.26451 11.6871 9.31167 11.6575 9.35605C11.6251 9.40321 11.5918 9.44761 11.5622 9.49107C11.5215 9.54655 11.4781 9.60478 11.4337 9.65657C11.3939 9.71112 11.3532 9.76569 11.3089 9.81377C11.2469 9.88681 11.1877 9.95617 11.1258 10.0227C11.0888 10.0662 11.049 10.1106 11.0083 10.1503C10.9686 10.1947 10.9279 10.2345 10.8909 10.2715C10.829 10.3334 10.7772 10.3815 10.7337 10.4213L10.632 10.5147C10.6172 10.5276 10.5978 10.535 10.5775 10.535H9.78964V11.5457H10.7809C11.0028 11.5457 11.2136 11.4671 11.3838 11.3228C11.442 11.272 11.6963 11.0519 11.9968 10.7199C12.007 10.7088 12.0199 10.7005 12.0347 10.6968L14.7727 9.90531C14.8235 9.89051 14.8753 9.92935 14.8753 9.98299Z" fill="white"/>
</g>
<defs>
<clipPath id="clip0">
<rect width="18" height="18" fill="white"/>
</clipPath>
</defs>
</svg>
